<svg width="8" height="12" viewBox="0 0 8 12" fill="none" xmlns="http://www.w3.org/2000/svg">
<path d="M2.22824 11.0539C2.56114 11.0539 2.81839 10.7599 2.81839 10.3843V5.1449H6.54088C6.84352 5.1449 7.08563 4.8836 7.08563 4.55698C7.08563 4.24669 6.84352 3.98539 6.54088 3.98539H2.81839V1.23888H7.4034C7.70604 1.23888 7.94816 0.993915 7.94816 0.667293C7.94816 0.357001 7.70604 0.0957031 7.4034 0.0957031H2.2585C1.89533 0.0957031 1.63809 0.389664 1.63809 0.765279V10.3843C1.63809 10.7599 1.8802 11.0539 2.22824 11.0539Z" fill="#999999"/>
<path d="M0.229004 7.44616C0.229004 7.14356 0.46443 6.89826 0.754843 6.89826H4.73234C5.02275 6.89826 5.25818 7.14356 5.25818 7.44616C5.25818 7.74877 5.02275 7.99407 4.73234 7.99407H0.754844C0.464431 7.99407 0.229004 7.74877 0.229004 7.44616Z" fill="#999999"/>
</svg>
