<svg width="9" height="13" viewBox="0 0 9 13" fill="none" xmlns="http://www.w3.org/2000/svg">
<g clip-path="url(#clip0_1908_10258)">
<path d="M2.22824 12.0539C2.56114 12.0539 2.81839 11.7599 2.81839 11.3843V6.1449H6.54088C6.84352 6.1449 7.08563 5.8836 7.08563 5.55698C7.08563 5.24669 6.84352 4.98539 6.54088 4.98539H2.81839V2.23888H7.4034C7.70604 2.23888 7.94816 1.99391 7.94816 1.66729C7.94816 1.357 7.70604 1.0957 7.4034 1.0957H2.2585C1.89533 1.0957 1.63809 1.38966 1.63809 1.76528V11.3843C1.63809 11.7599 1.8802 12.0539 2.22824 12.0539Z" fill="black"/>
<path d="M0.229004 8.44617C0.229004 8.14356 0.46443 7.89826 0.754843 7.89826H4.73234C5.02275 7.89826 5.25818 8.14356 5.25818 8.44617C5.25818 8.74877 5.02275 8.99407 4.73234 8.99407H0.754844C0.464431 8.99407 0.229004 8.74877 0.229004 8.44617Z" fill="black"/>
</g>
<defs>
<clipPath id="clip0_1908_10258">
<rect width="9" height="12.5" fill="white"/>
</clipPath>
</defs>
</svg>
