<svg width="9" height="12" viewBox="0 0 9 12" fill="none" xmlns="http://www.w3.org/2000/svg">
<path d="M2.60885 11.3965C2.96961 11.3965 3.24837 11.0908 3.24837 10.7002V5.25117H7.28224C7.6102 5.25117 7.87257 4.97942 7.87257 4.63973C7.87257 4.31703 7.6102 4.04528 7.28224 4.04528H3.24837V1.18891H8.21692C8.54488 1.18891 8.80724 0.93414 8.80724 0.594453C8.80724 0.271749 8.54488 0 8.21692 0H2.64165C2.2481 0 1.96934 0.305719 1.96934 0.696359V10.7002C1.96934 11.0908 2.2317 11.3965 2.60885 11.3965Z" fill="white"/>
<path d="M0.442383 7.64448C0.442383 7.32977 0.697502 7.07465 1.01221 7.07465H5.32242C5.63713 7.07465 5.89225 7.32977 5.89225 7.64448C5.89225 7.95919 5.63713 8.21431 5.32242 8.21431H1.01221C0.697503 8.21431 0.442383 7.95919 0.442383 7.64448Z" fill="white"/>
</svg>
