<svg width="16" height="16" viewBox="0 0 16 16" fill="none" xmlns="http://www.w3.org/2000/svg">
<path d="M5.29464 8.4375H4.13393C3.94241 8.4375 3.78571 8.2793 3.78571 8.08594V6.91406C3.78571 6.7207 3.94241 6.5625 4.13393 6.5625H5.29464C5.48616 6.5625 5.64286 6.7207 5.64286 6.91406V8.08594C5.64286 8.2793 5.48616 8.4375 5.29464 8.4375ZM8.42857 8.08594V6.91406C8.42857 6.7207 8.27187 6.5625 8.08036 6.5625H6.91964C6.72812 6.5625 6.57143 6.7207 6.57143 6.91406V8.08594C6.57143 8.2793 6.72812 8.4375 6.91964 8.4375H8.08036C8.27187 8.4375 8.42857 8.2793 8.42857 8.08594ZM11.2143 8.08594V6.91406C11.2143 6.7207 11.0576 6.5625 10.8661 6.5625H9.70536C9.51384 6.5625 9.35714 6.7207 9.35714 6.91406V8.08594C9.35714 8.2793 9.51384 8.4375 9.70536 8.4375H10.8661C11.0576 8.4375 11.2143 8.2793 11.2143 8.08594ZM8.42857 10.8984V9.72656C8.42857 9.5332 8.27187 9.375 8.08036 9.375H6.91964C6.72812 9.375 6.57143 9.5332 6.57143 9.72656V10.8984C6.57143 11.0918 6.72812 11.25 6.91964 11.25H8.08036C8.27187 11.25 8.42857 11.0918 8.42857 10.8984ZM5.64286 10.8984V9.72656C5.64286 9.5332 5.48616 9.375 5.29464 9.375H4.13393C3.94241 9.375 3.78571 9.5332 3.78571 9.72656V10.8984C3.78571 11.0918 3.94241 11.25 4.13393 11.25H5.29464C5.48616 11.25 5.64286 11.0918 5.64286 10.8984ZM11.2143 10.8984V9.72656C11.2143 9.5332 11.0576 9.375 10.8661 9.375H9.70536C9.51384 9.375 9.35714 9.5332 9.35714 9.72656V10.8984C9.35714 11.0918 9.51384 11.25 9.70536 11.25H10.8661C11.0576 11.25 11.2143 11.0918 11.2143 10.8984ZM14 3.28125V13.5938C14 14.3701 13.3761 15 12.6071 15H2.39286C1.62388 15 1 14.3701 1 13.5938V3.28125C1 2.50488 1.62388 1.875 2.39286 1.875H3.78571V0.351562C3.78571 0.158203 3.94241 0 4.13393 0H5.29464C5.48616 0 5.64286 0.158203 5.64286 0.351562V1.875H9.35714V0.351562C9.35714 0.158203 9.51384 0 9.70536 0H10.8661C11.0576 0 11.2143 0.158203 11.2143 0.351562V1.875H12.6071C13.3761 1.875 14 2.50488 14 3.28125ZM12.6071 13.418V4.6875H2.39286V13.418C2.39286 13.5146 2.47121 13.5938 2.56696 13.5938H12.433C12.5288 13.5938 12.6071 13.5146 12.6071 13.418Z" fill="#999999"/>
</svg>
