<svg width="14" height="14" viewBox="0 0 14 14" fill="none" xmlns="http://www.w3.org/2000/svg">
<path d="M0.999872 8.92485L3.943 7.60547L3.95425 7.60047C4.14555 7.518 4.35448 7.4848 4.56193 7.5039C4.76938 7.52301 4.96873 7.59382 5.14175 7.70985C5.166 7.72609 5.18937 7.74361 5.21175 7.76235L6.60612 8.94985C7.41862 8.50922 8.258 7.67672 8.69925 6.87422L7.508 5.45797C7.48885 5.43511 7.47111 5.41111 7.45487 5.3861C7.34189 5.21369 7.27329 5.01602 7.25518 4.81069C7.23708 4.60536 7.27004 4.39874 7.35112 4.20922C7.35305 4.20559 7.35472 4.20183 7.35612 4.19797L8.67487 1.24985C8.78312 1.0033 8.96787 0.798152 9.20177 0.664766C9.43568 0.531379 9.70631 0.476841 9.97362 0.509223C10.8809 0.628406 11.7138 1.07377 12.3167 1.76213C12.9196 2.45049 13.2513 3.33479 13.2499 4.24985C13.2499 9.35047 9.1005 13.4998 3.99987 13.4998C3.08481 13.5013 2.20052 13.1695 1.51216 12.5666C0.823794 11.9637 0.378431 11.1309 0.259248 10.2236C0.226866 9.95629 0.281404 9.68565 0.414791 9.45175C0.548178 9.21784 0.753325 9.0331 0.999872 8.92485ZM3.99987 11.9998C6.05454 11.9974 8.02434 11.1801 9.47721 9.72718C10.9301 8.27431 11.7474 6.30451 11.7499 4.24985C11.7513 3.73203 11.5755 3.22932 11.2517 2.82523C10.9279 2.42115 10.4756 2.14004 9.96987 2.0286L8.79362 4.6536L9.99112 6.07985C10.0105 6.10291 10.0284 6.12712 10.0449 6.15235C10.1629 6.33269 10.2323 6.5405 10.2463 6.75558C10.2603 6.97066 10.2185 7.18571 10.1249 7.37985C9.53612 8.58485 8.323 9.78985 7.1055 10.3798C6.91006 10.4725 6.69393 10.5129 6.47822 10.497C6.26252 10.4811 6.05463 10.4095 5.87487 10.2892C5.8507 10.2729 5.82754 10.2552 5.8055 10.2361L4.40362 9.04422L1.77862 10.2198C1.89006 10.7255 2.17118 11.1779 2.57526 11.5017C2.97934 11.8255 3.48206 12.0013 3.99987 11.9998Z" fill="#171715"/>
</svg>
