<svg width="66" height="24" viewBox="0 0 66 24" fill="none" xmlns="http://www.w3.org/2000/svg">
<path d="M0 12C0 5.37258 5.37258 0 12 0H54C60.6274 0 66 5.37258 66 12V24H12C5.37258 24 0 18.6274 0 12Z" fill="#00B955"/>
<path d="M12.4008 7.42V16H11.3868V8.616L9.51477 9.201L9.26777 8.33L12.0238 7.42H12.4008ZM20.5116 14.401H19.2636V16H18.2496V14.401H13.9466V14.115L16.7676 7.42H17.8076L15.2336 13.517H18.2496V10.657H19.2636V13.517H20.5116V14.401ZM24.2536 7.277C24.7823 7.277 25.2676 7.40267 25.7096 7.654C26.1603 7.90533 26.5156 8.252 26.7756 8.694C27.0356 9.136 27.1656 9.63 27.1656 10.176C27.1656 10.514 27.1136 10.8303 27.0096 11.125C26.9143 11.411 26.7973 11.6623 26.6586 11.879C26.5286 12.0957 26.3033 12.438 25.9826 12.906L23.8506 16H22.6546L24.8386 12.854C24.6306 12.932 24.388 12.971 24.1106 12.971C23.6166 12.971 23.153 12.8497 22.7196 12.607C22.295 12.3557 21.9526 12.0177 21.6926 11.593C21.4413 11.1597 21.3156 10.683 21.3156 10.163C21.3156 9.62567 21.4456 9.136 21.7056 8.694C21.9743 8.252 22.3296 7.90533 22.7716 7.654C23.2223 7.40267 23.7163 7.277 24.2536 7.277ZM24.2536 12.113C24.609 12.113 24.934 12.0263 25.2286 11.853C25.5233 11.6797 25.753 11.4457 25.9176 11.151C26.0823 10.8477 26.1646 10.514 26.1646 10.15C26.1646 9.786 26.0823 9.45667 25.9176 9.162C25.753 8.85867 25.5233 8.62467 25.2286 8.46C24.934 8.28667 24.609 8.2 24.2536 8.2C23.8983 8.2 23.569 8.28667 23.2656 8.46C22.971 8.62467 22.737 8.85867 22.5636 9.162C22.399 9.45667 22.3166 9.786 22.3166 10.15C22.3166 10.514 22.399 10.8477 22.5636 11.151C22.737 11.4457 22.971 11.6797 23.2656 11.853C23.569 12.0263 23.8983 12.113 24.2536 12.113ZM32.3143 9.669H33.3153V16H32.3143V9.669ZM37.6443 16H36.3833L33.4453 12.568L36.1103 9.669H37.3583L34.6673 12.542L37.6443 16ZM38.8748 9.669H39.8758V16H38.8748V9.669ZM44.2048 16H42.9438L40.0058 12.568L42.6708 9.669H43.9188L41.2278 12.542L44.2048 16ZM47.6467 9.526C48.3921 9.526 48.9901 9.747 49.4407 10.189C49.8914 10.631 50.1167 11.268 50.1167 12.1V16H49.1807V15.181C48.9467 15.493 48.6477 15.7313 48.2837 15.896C47.9197 16.0607 47.5081 16.143 47.0487 16.143C46.3987 16.143 45.8657 15.9827 45.4497 15.662C45.0424 15.3413 44.8387 14.908 44.8387 14.362C44.8387 13.8247 45.0467 13.3957 45.4627 13.075C45.8787 12.7543 46.4291 12.594 47.1137 12.594H49.1157V12.048C49.1157 11.528 48.9771 11.1337 48.6997 10.865C48.4311 10.5877 48.0584 10.449 47.5817 10.449C47.2004 10.449 46.8624 10.5357 46.5677 10.709C46.2731 10.8737 45.9957 11.125 45.7357 11.463L45.0727 10.917C45.3587 10.449 45.7271 10.1023 46.1777 9.877C46.6284 9.643 47.1181 9.526 47.6467 9.526ZM47.1787 15.311C47.5254 15.311 47.8461 15.2373 48.1407 15.09C48.4354 14.934 48.6694 14.7217 48.8427 14.453C49.0247 14.1843 49.1157 13.8897 49.1157 13.569V13.413H47.2307C46.7887 13.413 46.4507 13.491 46.2167 13.647C45.9827 13.7943 45.8657 14.0153 45.8657 14.31C45.8657 14.6307 45.9914 14.8777 46.2427 15.051C46.4941 15.2243 46.8061 15.311 47.1787 15.311ZM56.8939 9.669V16H55.8929V10.566H53.5399L53.5139 11.346C53.4792 12.4553 53.3969 13.348 53.2669 14.024C53.1369 14.7 52.9289 15.207 52.6429 15.545C52.3569 15.883 51.9669 16.052 51.4729 16.052C51.3515 16.052 51.2389 16.0347 51.1349 16V15.155C51.2389 15.1723 51.3255 15.181 51.3949 15.181C51.8022 15.181 52.0925 14.8647 52.2659 14.232C52.4392 13.5907 52.5389 12.62 52.5649 11.32L52.6039 9.669H56.8939Z" fill="white"/>
</svg>
