<svg width="24" height="24" viewBox="0 0 24 24" fill="none" xmlns="http://www.w3.org/2000/svg">
<path d="M19.875 1.5H4.125C2.67715 1.5 1.5 2.67715 1.5 4.125V15.9375C1.5 17.3854 2.67715 18.5625 4.125 18.5625H8.0625V22.0078C8.0625 22.299 8.30039 22.5 8.55469 22.5C8.65313 22.5 8.75566 22.4713 8.8459 22.4016L13.9688 18.5625H19.875C21.3229 18.5625 22.5 17.3854 22.5 15.9375V4.125C22.5 2.67715 21.3229 1.5 19.875 1.5ZM20.5312 15.9375C20.5312 16.2984 20.2359 16.5938 19.875 16.5938H13.3125L12.7875 16.9875L10.0312 19.0547V16.5938H4.125C3.76406 16.5938 3.46875 16.2984 3.46875 15.9375V4.125C3.46875 3.76406 3.76406 3.46875 4.125 3.46875H19.875C20.2359 3.46875 20.5312 3.76406 20.5312 4.125V15.9375Z" fill="black"/>
<path fill-rule="evenodd" clip-rule="evenodd" d="M6.83594 8.04318C6.83594 7.50318 7.27369 7.06543 7.81369 7.06543H16.2398C16.7798 7.06543 17.2176 7.50318 17.2176 8.04318C17.2176 8.58318 16.7798 9.02093 16.2398 9.02093H7.81369C7.27369 9.02093 6.83594 8.58318 6.83594 8.04318Z" fill="black"/>
<path fill-rule="evenodd" clip-rule="evenodd" d="M6.83594 11.9802C6.83594 11.4402 7.27369 11.0024 7.81369 11.0024H12.4881C13.0281 11.0024 13.4659 11.4402 13.4659 11.9802C13.4659 12.5202 13.0281 12.9579 12.4881 12.9579H7.81369C7.27369 12.9579 6.83594 12.5202 6.83594 11.9802Z" fill="black"/>
</svg>
