<svg width="24" height="24" viewBox="0 0 24 24" fill="none" xmlns="http://www.w3.org/2000/svg">
<path d="M12 1.82812C6.38086 1.82812 1.82812 6.38086 1.82812 12C1.82812 17.6191 6.38086 22.1719 12 22.1719C17.6191 22.1719 22.1719 17.6191 22.1719 12C22.1719 6.38086 17.6191 1.82812 12 1.82812ZM12 20.2031C7.46777 20.2031 3.79688 16.5322 3.79688 12C3.79688 7.46777 7.46777 3.79688 12 3.79688C16.5322 3.79688 20.2031 7.46777 20.2031 12C20.2031 16.5322 16.5322 20.2031 12 20.2031ZM14.5348 15.9211L11.0525 13.3904C10.9254 13.2961 10.8516 13.1484 10.8516 12.9926V6.25781C10.8516 5.98711 11.073 5.76562 11.3438 5.76562H12.6562C12.927 5.76562 13.1484 5.98711 13.1484 6.25781V12.0697L15.8883 14.0631C16.1098 14.223 16.1549 14.5307 15.9949 14.7521L15.2238 15.8145C15.0639 16.0318 14.7562 16.0811 14.5348 15.9211Z" fill="black"/>
</svg>
