<svg width="57" height="56" viewBox="0 0 57 56" fill="none" xmlns="http://www.w3.org/2000/svg">
<rect x="0.5" width="56" height="56" rx="28" fill="#FE3F3F" fill-opacity="0.1"/>
<path d="M16.1074 17.5762L21.2051 21.5312C22.6553 19.0264 25.3799 17.3125 28.5 17.3125C33.1582 17.3125 36.9375 21.0918 36.9375 25.75C36.9375 27.4639 35.9268 29.749 34.6084 32.0342L42.123 37.9668C42.6064 38.3184 42.6943 38.9775 42.2988 39.417C41.9473 39.9004 41.2881 39.9883 40.8486 39.5928L14.833 19.2021C14.3496 18.8506 14.2617 18.1914 14.6572 17.752C15.0088 17.2686 15.668 17.1807 16.1074 17.5762ZM22.875 22.8496L32.8945 30.7158C33.3779 29.8809 33.8174 29.0459 34.125 28.2988C34.6084 27.1562 34.8281 26.3213 34.8281 25.75C34.8281 22.2783 31.9717 19.4219 28.5 19.4219C26.0391 19.4219 23.9297 20.8281 22.875 22.8496ZM22.7432 28.123C22.7871 28.167 22.7871 28.2109 22.831 28.2988C23.2705 29.3535 23.9297 30.584 24.6768 31.7705C25.9512 33.8359 27.4014 35.7695 28.456 37.1758C29.1152 36.3848 29.8623 35.374 30.6094 34.3193L32.2793 35.5937C31.2246 37.0879 30.2139 38.3623 29.5107 39.2852C28.9834 39.9443 27.9726 39.9443 27.4453 39.2852C25.2041 36.5166 20.2383 29.8809 20.0625 25.9697L22.7432 28.123Z" fill="#FE3F3F"/>
</svg>
