<svg width="24" height="24" viewBox="0 0 24 24" fill="none" xmlns="http://www.w3.org/2000/svg">
<rect width="24" height="24" rx="12" fill="#FF8C21"/>
<path d="M12.6357 5.636C12.6357 5.00556 11.8103 4.75894 11.4662 5.29058C8.94182 9.19192 12.2119 11.3238 12.2119 12.6289C12.2119 13.2133 11.7367 13.6885 11.1523 13.6885C10.568 13.6885 10.0928 13.2133 10.0928 12.6289V9.82449C10.0928 9.31086 9.51372 9.00968 9.09333 9.30318C7.72861 10.2549 6.91406 11.8152 6.91406 13.4766C6.91406 16.281 9.19558 18.5625 12 18.5625C14.8044 18.5625 17.0859 16.281 17.0859 13.4766C17.0859 8.9657 12.6357 8.36811 12.6357 5.636V5.636ZM12 17.291C9.89675 17.291 8.18555 15.5798 8.18555 13.4766C8.18555 12.7174 8.4123 11.7624 8.82129 11.1455V12.6289C8.82129 13.9142 9.86709 14.96 11.1523 14.96C12.4376 14.96 13.4834 13.9142 13.4834 12.6289C13.4834 10.9264 11.1523 9.45019 11.7881 7.11914C12.8477 9.45019 15.8145 10.3447 15.8145 13.4766C15.8145 15.5798 14.1032 17.291 12 17.291Z" fill="white"/>
</svg>
