<svg width="23" height="18" viewBox="0 0 23 18" fill="none" xmlns="http://www.w3.org/2000/svg">
<path d="M0.5625 12.9375H1.125L1.125 8.85586C1.125 8.18789 1.3957 7.5375 1.8668 7.06641L4.81641 4.1168C5.2875 3.6457 5.94141 3.375 6.60586 3.375L7.875 3.375V1.96875C7.875 0.882422 8.75742 0 9.84375 0L20.5312 0C21.6176 0 22.5 0.882422 22.5 1.96875L22.5 12.6562C22.5 13.7426 21.6176 14.625 20.5312 14.625H20.25C20.25 16.4883 18.7383 18 16.875 18C15.0117 18 13.5 16.4883 13.5 14.625H9C9 16.4883 7.48828 18 5.625 18C3.76172 18 2.25 16.4883 2.25 14.625H0.5625C0.253125 14.625 0 14.3719 0 14.0625V13.5C0 13.1906 0.253125 12.9375 0.5625 12.9375ZM16.875 16.3125C17.8066 16.3125 18.5625 15.5566 18.5625 14.625C18.5625 13.6934 17.8066 12.9375 16.875 12.9375C15.9434 12.9375 15.1875 13.6934 15.1875 14.625C15.1875 15.5566 15.9434 16.3125 16.875 16.3125ZM9.5625 12.9375H13.9676C14.5512 11.932 15.627 11.25 16.875 11.25C18.123 11.25 19.1988 11.932 19.7824 12.9375H20.5312C20.6859 12.9375 20.8125 12.8109 20.8125 12.6562L20.8125 1.96875C20.8125 1.81406 20.6859 1.6875 20.5312 1.6875L9.84375 1.6875C9.68906 1.6875 9.5625 1.81406 9.5625 1.96875L9.5625 12.9375ZM7.875 5.0625H6.60586C6.38437 5.0625 6.16641 5.15391 6.0082 5.30859L3.4418 7.875H7.875L7.875 5.0625ZM5.625 16.3125C6.55664 16.3125 7.3125 15.5566 7.3125 14.625C7.3125 13.6934 6.55664 12.9375 5.625 12.9375C4.69336 12.9375 3.9375 13.6934 3.9375 14.625C3.9375 15.5566 4.69336 16.3125 5.625 16.3125ZM2.8125 12.7652C3.41719 11.8547 4.45078 11.25 5.625 11.25C6.49336 11.25 7.27734 11.5875 7.875 12.1254V9.5625L2.8125 9.5625L2.8125 12.7652Z" fill="black"/>
</svg>
