<svg width="24" height="24" viewBox="0 0 24 24" fill="none" xmlns="http://www.w3.org/2000/svg">
<g clip-path="url(#clip0_2372_12482)">
<path d="M20.5312 7.40625H19.4607C19.715 6.90996 19.875 6.36035 19.875 5.76562C19.875 3.77637 18.2549 2.15625 16.2656 2.15625C14.5594 2.15625 13.4561 3.02988 12.041 4.95762C10.626 3.02988 9.52266 2.15625 7.81641 2.15625C5.82715 2.15625 4.20703 3.77637 4.20703 5.76562C4.20703 6.36035 4.36289 6.90996 4.62129 7.40625L3.46875 7.40625C2.38184 7.40625 1.5 8.28809 1.5 9.375L1.5 14.625C1.5 14.9859 1.79531 15.2812 2.15625 15.2812H2.8125L2.8125 19.6863C2.8125 20.8758 3.78047 21.8438 4.96992 21.8438L19.0301 21.8437C20.2195 21.8437 21.1875 20.8758 21.1875 19.6863V15.2812H21.8438C22.2047 15.2812 22.5 14.9859 22.5 14.625L22.5 9.375C22.5 8.28809 21.6182 7.40625 20.5312 7.40625ZM11.0156 19.875H4.96992C4.86738 19.875 4.78125 19.793 4.78125 19.6863L4.78125 15.2812L9.375 15.2812V13.3125L3.46875 13.3125L3.46875 9.375L11.0156 9.375L11.0156 19.875ZM7.8123 7.40625C6.90586 7.40625 6.17168 6.67207 6.17168 5.76562C6.17168 4.85918 6.90586 4.125 7.8123 4.125C8.71465 4.125 9.35039 4.43672 11.2617 7.2832L11.3438 7.40625L7.8123 7.40625ZM12.8162 7.2832C14.7275 4.43672 15.3633 4.125 16.2656 4.125C17.1721 4.125 17.9062 4.85918 17.9062 5.76562C17.9062 6.67207 17.1721 7.40625 16.2656 7.40625L12.7342 7.40625L12.8162 7.2832ZM20.5313 13.3125L14.625 13.3125V15.2812L19.2188 15.2812V19.6863C19.2188 19.7889 19.1367 19.875 19.0301 19.875H12.9844L12.9844 9.375L20.5312 9.375L20.5313 13.3125Z" fill="black"/>
</g>
<defs>
<clipPath id="clip0_2372_12482">
<rect width="24" height="24" fill="white"/>
</clipPath>
</defs>
</svg>
