<svg width="24" height="24" viewBox="0 0 24 24" fill="none" xmlns="http://www.w3.org/2000/svg">
<path d="M22.1716 11.9808C22.1819 17.5852 17.6114 22.1679 12.007 22.1719C9.38143 22.1737 6.9878 21.1808 5.18225 19.5493C4.97319 19.3603 4.96487 19.0348 5.16408 18.8356L5.8597 18.14C6.04546 17.9542 6.34271 17.9489 6.53872 18.1238C7.9887 19.4174 9.90167 20.2031 11.9997 20.2031C16.5339 20.2031 20.2028 16.5335 20.2028 12C20.2028 7.46576 16.5332 3.79688 11.9997 3.79688C9.72252 3.79688 7.66402 4.72276 6.17864 6.21856L8.19214 8.20425C8.50554 8.5133 8.28668 9.04688 7.84654 9.04688H2.58301C2.3112 9.04688 2.09082 8.8265 2.09082 8.55469V3.36387C2.09082 2.92702 2.61758 2.70668 2.92861 3.01344L4.77829 4.83756C6.62116 2.97931 9.17578 1.82812 11.9997 1.82812C17.6111 1.82812 22.1612 6.37188 22.1716 11.9808ZM15.3196 15.6793L15.8986 14.8832C16.0584 14.6634 16.0098 14.3556 15.79 14.1957L12.9841 12.155V6.25781C12.9841 5.986 12.7637 5.76563 12.4919 5.76563H11.5075C11.2357 5.76563 11.0153 5.986 11.0153 6.25781V13.1575L14.632 15.7879C14.8519 15.9477 15.1597 15.8991 15.3196 15.6793Z" fill="black"/>
</svg>
