<svg width="24" height="24" viewBox="0 0 24 24" fill="none" xmlns="http://www.w3.org/2000/svg">
<path d="M22.9243 10.9691C23.3151 11.3208 23.3542 11.9071 23.0415 12.2979C22.6898 12.6888 22.1035 12.7279 21.7127 12.4152L20.7746 11.5944V18.8642C20.7746 20.6231 19.3675 21.9911 17.6478 21.9911H6.39129C4.63246 21.9911 3.26448 20.6231 3.26448 18.8642V11.5944L2.28735 12.4152C1.8965 12.7279 1.31022 12.6888 0.958454 12.2979C0.645773 11.9071 0.684858 11.3208 1.07571 10.9691L11.3942 2.21399C11.7459 1.94039 12.2541 1.94039 12.6058 2.21399L22.9243 10.9691ZM6.39129 20.115H8.26737V14.174C8.26737 13.3142 8.93182 12.6106 9.83078 12.6106H14.2083C15.0682 12.6106 15.7717 13.3142 15.7717 14.174V20.115H17.6478C18.3122 20.115 18.8985 19.5678 18.8985 18.8642V9.99192L12.0195 4.16824L5.14056 9.99192V18.8642C5.14056 19.5678 5.68775 20.115 6.39129 20.115ZM10.1435 20.115H13.8956V14.4867H10.1435V20.115Z" fill="black"/>
</svg>
