<svg width="24" height="24" viewBox="0 0 24 24" fill="none" xmlns="http://www.w3.org/2000/svg">
<path d="M12 6.28125C9.80273 6.28125 7.81055 7.45312 6.69727 9.32812C5.61328 11.2324 5.61328 13.5469 6.69727 15.4219C7.81055 17.3262 9.80273 18.4688 12 18.4688C14.168 18.4688 16.1602 17.3262 17.2734 15.4219C18.3574 13.5469 18.3574 11.2324 17.2734 9.32812C16.1602 7.45312 14.168 6.28125 12 6.28125ZM12 19.875C9.30469 19.875 6.84375 18.4688 5.49609 16.125C4.14844 13.8105 4.14844 10.9688 5.49609 8.625C6.84375 6.31055 9.30469 4.875 12 4.875C14.666 4.875 17.127 6.31055 18.4746 8.625C19.8223 10.9688 19.8223 13.8105 18.4746 16.125C17.127 18.4688 14.666 19.875 12 19.875Z" fill="#999999"/>
<path d="M10.9883 9.42575C10.9883 9.99483 11.4309 10.4374 12 10.4374C12.5374 10.4374 13.0117 9.99483 13.0117 9.42575C13.0117 8.88829 12.5374 8.41406 12 8.41406C11.4309 8.41406 10.9883 8.88829 10.9883 9.42575Z" fill="#999999"/>
<path d="M11.1572 12.2628C11.1572 11.7973 11.5346 11.4199 12.0001 11.4199C12.4655 11.4199 12.8429 11.7973 12.8429 12.2628V15.8251C12.8429 16.2906 12.4655 16.668 12.0001 16.668C11.5346 16.668 11.1572 16.2906 11.1572 15.8251V12.2628Z" fill="#999999"/>
</svg>
