<svg width="16" height="16" viewBox="0 0 16 16" fill="none" xmlns="http://www.w3.org/2000/svg">
<path d="M15.2949 8.87305L11.5449 12.623C11.252 12.916 10.8125 12.916 10.5488 12.623C10.2559 12.3594 10.2559 11.9199 10.5488 11.627L13.0977 9.07812H5.89062C5.48047 9.07812 5.1875 8.78516 5.1875 8.375C5.1875 7.99414 5.48047 7.67188 5.89062 7.67188H13.0977L10.5488 5.12305C10.2559 4.85938 10.2559 4.41992 10.5488 4.12695C10.8125 3.86328 11.252 3.86328 11.5449 4.12695L15.2949 7.90625C15.5586 8.16992 15.5586 8.60938 15.2949 8.87305ZM5.42188 3.21875H3.07812C2.4043 3.21875 1.90625 3.74609 1.90625 4.39062V12.3594C1.90625 13.0332 2.4043 13.5312 3.07812 13.5312H5.42188C5.80273 13.5312 6.125 13.8535 6.125 14.2344C6.125 14.6445 5.80273 14.9375 5.42188 14.9375H3.07812C1.64258 14.9375 0.5 13.7949 0.5 12.3594V4.39062C0.5 2.98438 1.64258 1.8125 3.07812 1.8125H5.42188C5.80273 1.8125 6.125 2.13477 6.125 2.51562C6.125 2.92578 5.80273 3.21875 5.42188 3.21875Z" fill="#FE3F3F"/>
</svg>
