<svg width="57" height="56" viewBox="0 0 57 56" fill="none" xmlns="http://www.w3.org/2000/svg">
<rect x="0.5" width="56" height="56" rx="28" fill="#F0F0F0"/>
<path d="M38.6718 27.9808C38.6822 33.5852 34.1116 38.1679 28.5072 38.1719C25.8817 38.1737 23.488 37.1808 21.6825 35.5493C21.4734 35.3603 21.4651 35.0348 21.6643 34.8356L22.3599 34.14C22.5457 33.9542 22.8429 33.9489 23.039 34.1238C24.4889 35.4174 26.4019 36.2031 28.4999 36.2031C33.0342 36.2031 36.7031 32.5335 36.7031 28C36.7031 23.4658 33.0335 19.7969 28.4999 19.7969C26.2228 19.7969 24.1643 20.7228 22.6789 22.2186L24.6924 24.2043C25.0058 24.5133 24.7869 25.0469 24.3468 25.0469H19.0833C18.8114 25.0469 18.5911 24.8265 18.5911 24.5547V19.3639C18.5911 18.927 19.1178 18.7067 19.4288 19.0134L21.2785 20.8376C23.1214 18.9793 25.676 17.8281 28.4999 17.8281C34.1113 17.8281 38.6614 22.3719 38.6718 27.9808ZM31.8198 31.6793L32.3988 30.8832C32.5587 30.6634 32.5101 30.3556 32.2902 30.1957L29.4843 28.155V22.2578C29.4843 21.986 29.2639 21.7656 28.9921 21.7656H28.0078C27.7359 21.7656 27.5156 21.986 27.5156 22.2578V29.1575L31.1323 31.7879C31.3521 31.9477 31.66 31.8991 31.8198 31.6793Z" fill="#999999"/>
</svg>
