<svg width="49" height="48" viewBox="0 0 49 48" fill="none" xmlns="http://www.w3.org/2000/svg">
<rect x="0.875" width="48" height="48" rx="24" fill="white"/>
<path d="M24.875 13.8281C19.2559 13.8281 14.7031 18.3809 14.7031 24C14.7031 29.6191 19.2559 34.1719 24.875 34.1719C30.4941 34.1719 35.0469 29.6191 35.0469 24C35.0469 18.3809 30.4941 13.8281 24.875 13.8281ZM24.875 32.2031C20.3428 32.2031 16.6719 28.5322 16.6719 24C16.6719 19.4678 20.3428 15.7969 24.875 15.7969C29.4072 15.7969 33.0781 19.4678 33.0781 24C33.0781 28.5322 29.4072 32.2031 24.875 32.2031ZM27.4098 27.9211L23.9275 25.3904C23.8004 25.2961 23.7266 25.1484 23.7266 24.9926V18.2578C23.7266 17.9871 23.948 17.7656 24.2188 17.7656H25.5312C25.802 17.7656 26.0234 17.9871 26.0234 18.2578V24.0697L28.7633 26.0631C28.9848 26.223 29.0299 26.5307 28.8699 26.7521L28.0988 27.8145C27.9389 28.0318 27.6312 28.0811 27.4098 27.9211Z" fill="black"/>
</svg>
