<svg width="22" height="22" viewBox="0 0 22 22" fill="none" xmlns="http://www.w3.org/2000/svg">
<path d="M10.875 0.828125C5.25586 0.828125 0.703125 5.38086 0.703125 11C0.703125 16.6191 5.25586 21.1719 10.875 21.1719C16.4941 21.1719 21.0469 16.6191 21.0469 11C21.0469 5.38086 16.4941 0.828125 10.875 0.828125ZM10.875 19.2031C6.34277 19.2031 2.67188 15.5322 2.67188 11C2.67188 6.46777 6.34277 2.79688 10.875 2.79688C15.4072 2.79688 19.0781 6.46777 19.0781 11C19.0781 15.5322 15.4072 19.2031 10.875 19.2031ZM13.4098 14.9211L9.92754 12.3904C9.80039 12.2961 9.72656 12.1484 9.72656 11.9926V5.25781C9.72656 4.98711 9.94805 4.76562 10.2188 4.76562H11.5312C11.802 4.76562 12.0234 4.98711 12.0234 5.25781V11.0697L14.7633 13.0631C14.9848 13.223 15.0299 13.5307 14.8699 13.7521L14.0988 14.8145C13.9389 15.0318 13.6312 15.0811 13.4098 14.9211Z" fill="black"/>
</svg>
