<svg width="49" height="48" viewBox="0 0 49 48" fill="none" xmlns="http://www.w3.org/2000/svg">
<rect x="0.125" width="48" height="48" rx="24" fill="white"/>
<path d="M24.7426 20.1976C24.7426 19.0202 24.2447 16.4223 24.1404 15.8857C23.9513 14.8936 23.048 14.1177 21.7548 14.1177C21.3147 14.1177 20.8631 14.2103 20.4693 14.4188C20.0833 14.2142 19.6278 14.1177 19.1838 14.1177C18.7399 14.1177 18.2844 14.2142 17.8983 14.4188C17.5085 14.2103 17.0529 14.1177 16.6129 14.1177C15.3274 14.1177 14.4164 14.8859 14.2272 15.8857C14.123 16.4184 13.625 19.0164 13.625 20.1976C13.625 22.232 14.7136 23.8572 16.3195 24.7026L15.9257 31.6782C15.8562 32.8748 16.8175 33.8824 18.0257 33.8824H20.3419C21.5502 33.8824 22.5114 32.8748 22.4419 31.6782L22.0482 24.6987C23.6463 23.8611 24.7426 22.2359 24.7426 20.1976ZM20.1219 23.4248L20.5928 31.7824C20.6006 31.9136 20.4886 32.0294 20.3419 32.0294H18.0257C17.8829 32.0294 17.7671 31.9175 17.7748 31.7824L18.2458 23.4248C16.609 23.1122 15.4779 21.8884 15.4779 20.1976C15.4779 19.1322 16.0493 16.2331 16.0493 16.2331C16.111 15.878 17.1417 15.8857 17.1881 16.2408V20.63C17.2228 21.0392 18.2767 21.0469 18.3268 20.6377L18.6125 16.2331C18.6743 15.8857 19.6895 15.8857 19.7513 16.2331L20.0369 20.6377C20.0871 21.0469 21.141 21.0392 21.1757 20.63V16.2408C21.2221 15.8857 22.2528 15.878 22.3145 16.2331C22.3145 16.2331 22.8858 19.1322 22.8858 20.1976C22.8897 21.8807 21.7664 23.1083 20.1219 23.4248ZM28.6608 26.1077L28.1474 31.6087C28.0355 32.8285 29.0237 33.8824 30.3015 33.8824H32.4632C33.6561 33.8824 34.625 32.9482 34.625 31.7978V16.2022C34.625 15.0519 33.6561 14.1177 32.4632 14.1177C29.6915 14.1177 25.9779 17.3217 25.9779 21.1318C25.9779 23.4634 27.329 25.0384 28.6608 26.1077ZM27.8309 21.1318C27.8309 18.3293 30.7415 15.9706 32.4632 15.9706C32.6292 15.9706 32.7721 16.0787 32.7721 16.2022V31.7978C32.7721 31.9252 32.6292 32.0294 32.4632 32.0294H30.3015C30.1239 32.0294 29.9811 31.9136 29.9926 31.7824L30.6026 25.2392C29.0739 24.1969 27.8309 22.9616 27.8309 21.1318Z" fill="black"/>
</svg>
