<svg width="49" height="48" viewBox="0 0 49 48" fill="none" xmlns="http://www.w3.org/2000/svg">
<rect x="0.625" width="48" height="48" rx="24" fill="white"/>
<path d="M31.1875 14.8125C30.3308 14.8152 29.4987 15.0997 28.8197 15.6221C27.8624 14.3408 26.3477 13.5 24.625 13.5C22.9024 13.5 21.3877 14.3408 20.4304 15.6221C19.8487 15.1759 19.1536 14.9017 18.424 14.8307C17.6943 14.7597 16.9594 14.8948 16.3027 15.2206C15.646 15.5463 15.0938 16.0498 14.7088 16.6737C14.3239 17.2976 14.1216 18.0169 14.125 18.75C14.125 20.462 16.75 27.9375 16.75 27.9375V33.1875C16.75 33.5356 16.8883 33.8694 17.1345 34.1156C17.3806 34.3617 17.7144 34.5 18.0625 34.5H31.1875C31.5356 34.5 31.8694 34.3617 32.1156 34.1156C32.3617 33.8694 32.5 33.5356 32.5 33.1875V27.9375C32.5 27.9375 35.125 20.462 35.125 18.75C35.125 17.7057 34.7102 16.7042 33.9717 15.9658C33.2333 15.2273 32.2318 14.8125 31.1875 14.8125ZM18.7188 32.5312V29.25H30.5313V32.5312H18.7188ZM30.6436 27.2812H29.4316L29.875 21.7544C29.8819 21.6677 29.8541 21.5818 29.7978 21.5156C29.7414 21.4494 29.661 21.4083 29.5744 21.4012L28.9181 21.3488H28.8915C28.8087 21.3485 28.729 21.3795 28.6681 21.4355C28.6073 21.4916 28.5698 21.5686 28.5633 21.651L28.1122 27.2825H25.2542V21.7031C25.2542 21.6161 25.2196 21.5326 25.1581 21.4711C25.0966 21.4096 25.0131 21.375 24.9261 21.375H24.2698C24.1828 21.375 24.0993 21.4096 24.0378 21.4711C23.9763 21.5326 23.9417 21.6161 23.9417 21.7031V27.2812H21.1354L20.6842 21.6498C20.6777 21.5673 20.6403 21.4904 20.5795 21.4343C20.5186 21.3783 20.4389 21.3473 20.3561 21.3475H20.3295L19.6732 21.4C19.5865 21.407 19.5062 21.4482 19.4498 21.5144C19.3934 21.5806 19.3657 21.6665 19.3726 21.7532L19.8184 27.2812H18.6064C17.4063 23.8679 16.1127 19.6253 16.0938 18.75C16.0906 18.3836 16.1907 18.0237 16.3826 17.7115C16.5745 17.3993 16.8505 17.1475 17.1788 16.9848C17.5072 16.8222 17.8747 16.7553 18.2394 16.7918C18.604 16.8284 18.9509 16.9668 19.2405 17.1914L20.8204 18.3899L22.0074 16.8013C22.6399 15.9544 23.5939 15.4688 24.625 15.4688C25.6562 15.4688 26.6102 15.9544 27.2426 16.8005L28.4296 18.3891L30.0095 17.1914C30.2989 16.967 30.6455 16.8286 31.0099 16.7919C31.3742 16.7553 31.7415 16.8219 32.0697 16.9841C32.398 17.1464 32.6739 17.3977 32.8661 17.7094C33.0582 18.0211 33.1588 18.3806 33.1563 18.7467C33.1374 19.6253 31.8438 23.8679 30.6436 27.2812Z" fill="black"/>
</svg>
