<svg width="49" height="48" viewBox="0 0 49 48" fill="none" xmlns="http://www.w3.org/2000/svg">
<rect x="0.375" width="48" height="48" rx="24" fill="white"/>
<path d="M27.1875 18.375C27.5213 18.375 27.8475 18.276 28.125 18.0906C28.4025 17.9052 28.6188 17.6416 28.7465 17.3333C28.8743 17.0249 28.9077 16.6856 28.8426 16.3583C28.7775 16.0309 28.6167 15.7303 28.3807 15.4943C28.1447 15.2583 27.8441 15.0975 27.5167 15.0324C27.1894 14.9673 26.8501 15.0007 26.5417 15.1285C26.2334 15.2562 25.9698 15.4725 25.7844 15.75C25.599 16.0275 25.5 16.3537 25.5 16.6875C25.5 17.1351 25.6778 17.5643 25.9943 17.8808C26.3107 18.1972 26.7399 18.375 27.1875 18.375ZM17.625 24C16.735 24 15.865 24.2639 15.1249 24.7584C14.3849 25.2529 13.8081 25.9557 13.4675 26.778C13.1269 27.6002 13.0378 28.505 13.2115 29.3779C13.3851 30.2509 13.8137 31.0527 14.443 31.682C15.0724 32.3114 15.8742 32.7399 16.7471 32.9136C17.62 33.0872 18.5248 32.9981 19.3471 32.6575C20.1693 32.3169 20.8721 31.7401 21.3666 31.0001C21.8611 30.2601 22.125 29.3901 22.125 28.5C22.125 27.3066 21.6509 26.162 20.807 25.318C19.9631 24.4741 18.8185 24 17.625 24ZM17.625 31.3125C17.0687 31.3125 16.525 31.1476 16.0625 30.8385C15.5999 30.5295 15.2395 30.0903 15.0266 29.5763C14.8137 29.0624 14.758 28.4969 14.8665 27.9513C14.9751 27.4058 15.2429 26.9046 15.6363 26.5113C16.0296 26.118 16.5307 25.8501 17.0763 25.7416C17.6219 25.633 18.1874 25.6887 18.7013 25.9016C19.2152 26.1145 19.6545 26.475 19.9635 26.9375C20.2726 27.4 20.4375 27.9438 20.4375 28.5C20.4367 29.2457 20.1401 29.9606 19.6128 30.4879C19.0855 31.0151 18.3707 31.3117 17.625 31.3125ZM31.125 24C30.235 24 29.365 24.2639 28.6249 24.7584C27.8849 25.2529 27.3081 25.9557 26.9675 26.778C26.6269 27.6002 26.5378 28.505 26.7115 29.3779C26.8851 30.2509 27.3137 31.0527 27.943 31.682C28.5724 32.3114 29.3742 32.7399 30.2471 32.9136C31.12 33.0872 32.0248 32.9981 32.8471 32.6575C33.6693 32.3169 34.3721 31.7401 34.8666 31.0001C35.3611 30.2601 35.625 29.3901 35.625 28.5C35.625 27.3066 35.1509 26.162 34.307 25.318C33.4631 24.4741 32.3185 24 31.125 24ZM31.125 31.3125C30.5687 31.3125 30.025 31.1476 29.5625 30.8385C29.0999 30.5295 28.7395 30.0903 28.5266 29.5763C28.3137 29.0624 28.258 28.4969 28.3665 27.9513C28.4751 27.4058 28.7429 26.9046 29.1363 26.5113C29.5296 26.118 30.0307 25.8501 30.5763 25.7416C31.1219 25.633 31.6874 25.6887 32.2013 25.9016C32.7152 26.1145 33.1545 26.475 33.4635 26.9375C33.7726 27.4 33.9375 27.9438 33.9375 28.5C33.9367 29.2457 33.6401 29.9606 33.1128 30.4879C32.5855 31.0151 31.8707 31.3117 31.125 31.3125ZM27.2227 22.4085C27.3723 22.5284 27.5583 22.5937 27.75 22.5938H30C30.2238 22.5938 30.4384 22.5049 30.5966 22.3466C30.7549 22.1884 30.8438 21.9738 30.8438 21.75C30.8438 21.5262 30.7549 21.3116 30.5966 21.1534C30.4384 20.9952 30.2238 20.9063 30 20.9063H28.0457L25.4648 18.8415C25.3114 18.7187 25.1199 18.6532 24.9234 18.6565C24.7268 18.6598 24.5376 18.7316 24.3884 18.8595L20.7321 21.9922C20.6001 22.1053 20.496 22.2474 20.4281 22.4074C20.3601 22.5674 20.3302 22.7409 20.3406 22.9144C20.351 23.0879 20.4015 23.2567 20.4881 23.4074C20.5747 23.5581 20.695 23.6867 20.8397 23.7831L23.5302 25.5761V29.625C23.5302 29.8488 23.6191 30.0634 23.7773 30.2217C23.9356 30.3799 24.1502 30.4688 24.3739 30.4688C24.5977 30.4688 24.8123 30.3799 24.9706 30.2217C25.1288 30.0634 25.2177 29.8488 25.2177 29.625V25.125C25.2179 24.9859 25.1836 24.8489 25.1181 24.7263C25.0525 24.6036 24.9576 24.499 24.8419 24.4219L23.0802 23.2477L25.5865 21.0996L27.2227 22.4085Z" fill="black"/>
<path d="M19.86 21.1917L23.6177 18.0141C23.8686 17.8019 23.9022 17.4274 23.693 17.174L22.075 15.2139C21.8623 14.9562 21.4801 14.922 21.2249 15.1377L17.4672 18.3153C17.2163 18.5275 17.1827 18.902 17.3919 19.1554L19.0099 21.1155C19.2226 21.3732 19.6048 21.4074 19.86 21.1917Z" fill="black"/>
</svg>
