<svg width="22" height="22" viewBox="0 0 22 22" fill="none" xmlns="http://www.w3.org/2000/svg">
<path d="M17.1875 1.8125C16.3308 1.81522 15.4987 2.09973 14.8197 2.62215C13.8624 1.34082 12.3477 0.5 10.625 0.5C8.90237 0.5 7.38766 1.34082 6.43036 2.62215C5.84875 2.17589 5.15363 1.90169 4.42399 1.8307C3.69434 1.75971 2.95941 1.89477 2.30268 2.22055C1.64595 2.54633 1.09375 3.04977 0.708813 3.67367C0.323874 4.29756 0.121625 5.01691 0.125043 5.75C0.125043 7.46199 2.75004 14.9375 2.75004 14.9375V20.1875C2.75004 20.5356 2.88832 20.8694 3.13446 21.1156C3.3806 21.3617 3.71444 21.5 4.06253 21.5H17.1875C17.5356 21.5 17.8694 21.3617 18.1156 21.1156C18.3617 20.8694 18.5 20.5356 18.5 20.1875V14.9375C18.5 14.9375 21.125 7.46199 21.125 5.75C21.125 4.70571 20.7102 3.70419 19.9717 2.96577C19.2333 2.22734 18.2318 1.8125 17.1875 1.8125ZM4.71878 19.5312V16.25H16.5313V19.5312H4.71878ZM16.6436 14.2812H15.4316L15.875 8.75439C15.8819 8.66771 15.8541 8.58182 15.7978 8.5156C15.7414 8.44939 15.661 8.40826 15.5744 8.40125L14.9181 8.34875H14.8915C14.8087 8.34849 14.729 8.37949 14.6681 8.43555C14.6073 8.4916 14.5698 8.56856 14.5633 8.65104L14.1122 14.2825H11.2542V8.70312C11.2542 8.6161 11.2196 8.53264 11.1581 8.47111C11.0966 8.40957 11.0131 8.375 10.9261 8.375H10.2698C10.1828 8.375 10.0993 8.40957 10.0378 8.47111C9.97627 8.53264 9.9417 8.6161 9.9417 8.70312V14.2812H7.13542L6.68425 8.6498C6.67773 8.56733 6.64031 8.49037 6.57946 8.43432C6.51862 8.37826 6.43885 8.34726 6.35612 8.34752H6.32946L5.67322 8.40002C5.58654 8.40703 5.50618 8.44816 5.44981 8.51437C5.39344 8.58059 5.36566 8.66648 5.37257 8.75316L5.81841 14.2812H4.6064C3.40629 10.8679 2.11266 6.62527 2.09379 5.75C2.09064 5.38357 2.19074 5.02366 2.38264 4.71148C2.57453 4.3993 2.85046 4.14747 3.17883 3.98482C3.5072 3.82218 3.87474 3.7553 4.23935 3.79183C4.60397 3.82837 4.95093 3.96684 5.2405 4.19141L6.82042 5.38988L8.00741 3.80135C8.63987 2.95438 9.59389 2.46875 10.625 2.46875C11.6562 2.46875 12.6102 2.95438 13.2426 3.80053L14.4296 5.38906L16.0095 4.19141C16.2989 3.96702 16.6455 3.82859 17.0099 3.79193C17.3742 3.75527 17.7415 3.82188 18.0697 3.98412C18.398 4.14636 18.6739 4.3977 18.8661 4.7094C19.0582 5.02109 19.1588 5.38057 19.1563 5.74672C19.1374 6.62527 17.8438 10.8679 16.6436 14.2812Z" fill="black"/>
</svg>
