<svg width="20" height="20" viewBox="0 0 20 20" fill="none" xmlns="http://www.w3.org/2000/svg">
<path d="M12.3438 5.31251C12.6219 5.31251 12.8938 5.23003 13.125 5.07551C13.3563 4.92099 13.5365 4.70136 13.643 4.4444C13.7494 4.18744 13.7772 3.90469 13.723 3.63191C13.6687 3.35912 13.5348 3.10855 13.3381 2.91188C13.1415 2.71521 12.8909 2.58128 12.6181 2.52702C12.3453 2.47276 12.0626 2.50061 11.8056 2.60705C11.5486 2.71348 11.329 2.89372 11.1745 3.12498C11.02 3.35624 10.9375 3.62812 10.9375 3.90625C10.9375 4.27922 11.0857 4.6369 11.3494 4.90063C11.6131 5.16435 11.9708 5.31251 12.3438 5.31251V5.31251ZM4.375 10C3.63332 10 2.9083 10.22 2.29161 10.632C1.67493 11.0441 1.19428 11.6297 0.910453 12.315C0.626625 13.0002 0.552362 13.7542 0.697057 14.4816C0.841751 15.209 1.1989 15.8772 1.72335 16.4017C2.2478 16.9261 2.91598 17.2833 3.64341 17.428C4.37084 17.5727 5.12484 17.4984 5.81006 17.2146C6.49529 16.9308 7.08096 16.4501 7.49301 15.8334C7.90507 15.2167 8.125 14.4917 8.125 13.75C8.125 12.7555 7.72991 11.8016 7.02665 11.0984C6.32339 10.3951 5.36956 10 4.375 10V10ZM4.375 16.0938C3.91145 16.0938 3.45831 15.9563 3.07288 15.6988C2.68746 15.4413 2.38705 15.0752 2.20966 14.6469C2.03227 14.2187 1.98585 13.7474 2.07629 13.2928C2.16672 12.8381 2.38994 12.4205 2.71772 12.0927C3.0455 11.765 3.46312 11.5417 3.91776 11.4513C4.3724 11.3609 4.84365 11.4073 5.27192 11.5847C5.70018 11.7621 6.06622 12.0625 6.32376 12.4479C6.58129 12.8333 6.71875 13.2865 6.71875 13.75C6.71805 14.3714 6.4709 14.9672 6.03151 15.4065C5.59213 15.8459 4.99639 16.0931 4.375 16.0938V16.0938ZM15.625 10C14.8833 10 14.1583 10.22 13.5416 10.632C12.9249 11.0441 12.4443 11.6297 12.1605 12.315C11.8766 13.0002 11.8024 13.7542 11.9471 14.4816C12.0918 15.209 12.4489 15.8772 12.9734 16.4017C13.4978 16.9261 14.166 17.2833 14.8934 17.428C15.6208 17.5727 16.3748 17.4984 17.0601 17.2146C17.7453 16.9308 18.331 16.4501 18.743 15.8334C19.1551 15.2167 19.375 14.4917 19.375 13.75C19.375 12.7555 18.9799 11.8016 18.2767 11.0984C17.5734 10.3951 16.6196 10 15.625 10V10ZM15.625 16.0938C15.1615 16.0938 14.7083 15.9563 14.3229 15.6988C13.9375 15.4413 13.6371 15.0752 13.4597 14.6469C13.2823 14.2187 13.2359 13.7474 13.3263 13.2928C13.4167 12.8381 13.6399 12.4205 13.9677 12.0927C14.2955 11.765 14.7131 11.5417 15.1678 11.4513C15.6224 11.3609 16.0937 11.4073 16.5219 11.5847C16.9502 11.7621 17.3162 12.0625 17.5738 12.4479C17.8313 12.8333 17.9688 13.2865 17.9688 13.75C17.9681 14.3714 17.7209 14.9672 17.2815 15.4065C16.8421 15.8459 16.2464 16.0931 15.625 16.0938V16.0938ZM12.373 8.67375C12.4977 8.77364 12.6527 8.8281 12.8125 8.82814H14.6875C14.874 8.82814 15.0528 8.75406 15.1847 8.6222C15.3165 8.49034 15.3906 8.31149 15.3906 8.12501C15.3906 7.93853 15.3165 7.75969 15.1847 7.62783C15.0528 7.49597 14.874 7.42189 14.6875 7.42189H13.0589L10.9082 5.70128C10.7803 5.59889 10.6208 5.54435 10.457 5.54707C10.2932 5.5498 10.1355 5.60963 10.0111 5.71622L6.96426 8.32687C6.85421 8.42105 6.76748 8.53946 6.71088 8.67279C6.65427 8.80613 6.62934 8.95076 6.63802 9.09535C6.64671 9.23994 6.68878 9.38055 6.76094 9.50615C6.83309 9.63175 6.93337 9.73892 7.05391 9.81926L9.296 11.3134V14.6875C9.296 14.874 9.37008 15.0529 9.50194 15.1847C9.6338 15.3166 9.81264 15.3907 9.99912 15.3907C10.1856 15.3907 10.3644 15.3166 10.4963 15.1847C10.6282 15.0529 10.7022 14.874 10.7022 14.6875V10.9375C10.7024 10.8216 10.6739 10.7075 10.6192 10.6052C10.5646 10.503 10.4855 10.4159 10.3891 10.3516L8.921 9.37306L11.0096 7.58302L12.373 8.67375Z" fill="black"/>
<path d="M6.31469 7.59443L9.2934 5.07561C9.54431 4.86344 9.57788 4.48891 9.3687 4.2355L8.1477 2.75635C7.93498 2.49865 7.55272 2.46439 7.29757 2.68016L4.31885 5.19897C4.06794 5.41115 4.03437 5.78568 4.24356 6.03909L5.46455 7.51824C5.67727 7.77593 6.05953 7.81019 6.31469 7.59443Z" fill="black"/>
</svg>
