<svg width="24" height="24" viewBox="0 0 24 24" fill="none" xmlns="http://www.w3.org/2000/svg">
<path d="M18.5625 2.8125C17.7058 2.81522 16.8737 3.09973 16.1947 3.62215C15.2374 2.34082 13.7227 1.5 12 1.5C10.2774 1.5 8.76266 2.34082 7.80536 3.62215C7.22375 3.17589 6.52863 2.90169 5.79899 2.8307C5.06934 2.75971 4.33441 2.89477 3.67768 3.22055C3.02095 3.54633 2.46875 4.04977 2.08381 4.67367C1.69887 5.29756 1.49663 6.01691 1.50004 6.75C1.50004 8.46199 4.12504 15.9375 4.12504 15.9375L4.12504 21.1875C4.12504 21.5356 4.26332 21.8694 4.50946 22.1156C4.7556 22.3617 5.08944 22.5 5.43753 22.5L18.5625 22.5C18.9106 22.5 19.2444 22.3617 19.4906 22.1156C19.7367 21.8694 19.875 21.5356 19.875 21.1875V15.9375C19.875 15.9375 22.5 8.46199 22.5 6.75C22.5 5.70571 22.0852 4.70419 21.3467 3.96577C20.6083 3.22734 19.6068 2.8125 18.5625 2.8125V2.8125ZM6.09378 20.5312V17.25H17.9063V20.5313L6.09378 20.5312ZM18.0186 15.2813H16.8066L17.25 9.75439C17.2569 9.66771 17.2291 9.58182 17.1728 9.5156C17.1164 9.44939 17.036 9.40826 16.9494 9.40125L16.2931 9.34875H16.2665C16.1837 9.34849 16.104 9.37949 16.0431 9.43555C15.9823 9.4916 15.9448 9.56856 15.9383 9.65103L15.4872 15.2825H12.6292V9.70313C12.6292 9.6161 12.5946 9.53264 12.5331 9.47111C12.4716 9.40957 12.3881 9.375 12.3011 9.375H11.6448C11.5578 9.375 11.4743 9.40957 11.4128 9.47111C11.3513 9.53264 11.3167 9.6161 11.3167 9.70313V15.2813H8.51042L8.05925 9.6498C8.05273 9.56733 8.01531 9.49037 7.95446 9.43432C7.89362 9.37826 7.81385 9.34726 7.73112 9.34752H7.70446L7.04822 9.40002C6.96154 9.40703 6.88118 9.44816 6.82481 9.51437C6.76844 9.58059 6.74066 9.66648 6.74757 9.75316L7.19341 15.2813L5.9814 15.2812C4.78129 11.8679 3.48766 7.62527 3.46879 6.75C3.46564 6.38357 3.56574 6.02366 3.75764 5.71148C3.94953 5.3993 4.22546 5.14747 4.55383 4.98482C4.8822 4.82218 5.24974 4.7553 5.61435 4.79183C5.97897 4.82837 6.32593 4.96684 6.6155 5.19141L8.19542 6.38988L9.38241 4.80135C10.0149 3.95437 10.9689 3.46875 12 3.46875C13.0312 3.46875 13.9852 3.95438 14.6176 4.80053L15.8046 6.38906L17.3845 5.19141C17.6739 4.96702 18.0205 4.82859 18.3849 4.79193C18.7492 4.75527 19.1165 4.82188 19.4447 4.98412C19.773 5.14636 20.0489 5.3977 20.2411 5.7094C20.4332 6.02109 20.5338 6.38057 20.5313 6.74672C20.5124 7.62527 19.2188 11.8679 18.0186 15.2813Z" fill="black"/>
</svg>
