<svg width="11" height="12" viewBox="0 0 11 12" fill="none" xmlns="http://www.w3.org/2000/svg">
<path d="M10.0625 5.125H6.125V1.1875C6.125 0.945781 5.92922 0.75 5.6875 0.75H4.8125C4.57078 0.75 4.375 0.945781 4.375 1.1875V5.125H0.4375C0.195781 5.125 0 5.32078 0 5.5625V6.4375C0 6.67922 0.195781 6.875 0.4375 6.875H4.375V10.8125C4.375 11.0542 4.57078 11.25 4.8125 11.25H5.6875C5.92922 11.25 6.125 11.0542 6.125 10.8125V6.875H10.0625C10.3042 6.875 10.5 6.67922 10.5 6.4375V5.5625C10.5 5.32078 10.3042 5.125 10.0625 5.125Z" fill="#999999"/>
</svg>
