<svg width="22" height="22" viewBox="0 0 22 22" fill="none" xmlns="http://www.w3.org/2000/svg">
<path d="M11 4.56452C8.75605 4.56452 6.93548 6.38508 6.93548 8.62903C6.93548 10.873 8.75605 12.6935 11 12.6935C13.244 12.6935 15.0645 10.873 15.0645 8.62903C15.0645 6.38508 13.244 4.56452 11 4.56452ZM11 10.6613C9.87802 10.6613 8.96774 9.75101 8.96774 8.62903C8.96774 7.50706 9.87802 6.59677 11 6.59677C12.122 6.59677 13.0323 7.50706 13.0323 8.62903C13.0323 9.75101 12.122 10.6613 11 10.6613ZM11 0.5C5.1996 0.5 0.5 5.1996 0.5 11C0.5 16.8004 5.1996 21.5 11 21.5C16.8004 21.5 21.5 16.8004 21.5 11C21.5 5.1996 16.8004 0.5 11 0.5ZM11 19.4677C8.89577 19.4677 6.97359 18.6929 5.49173 17.4185C6.12258 16.4448 7.20222 15.7843 8.43851 15.7462C9.31915 16.0171 10.1575 16.1526 11 16.1526C11.8425 16.1526 12.6808 16.0214 13.5615 15.7462C14.7978 15.7885 15.8774 16.4448 16.5083 17.4185C15.0264 18.6929 13.1042 19.4677 11 19.4677V19.4677ZM17.8885 15.9071C16.8554 14.5776 15.2593 13.7097 13.4387 13.7097C13.0069 13.7097 12.3379 14.1161 11 14.1161C9.66633 14.1161 8.99315 13.7097 8.56129 13.7097C6.74496 13.7097 5.14879 14.5776 4.11149 15.9071C3.12077 14.5226 2.53226 12.829 2.53226 11C2.53226 6.33004 6.33004 2.53226 11 2.53226C15.67 2.53226 19.4677 6.33004 19.4677 11C19.4677 12.829 18.8792 14.5226 17.8885 15.9071Z" fill="black"/>
</svg>
