<svg width="24" height="24" viewBox="0 0 24 24" fill="none" xmlns="http://www.w3.org/2000/svg">
<rect width="24" height="24" rx="12" fill="#FF3A3A"/>
<path d="M16.7982 8.42135C17.7165 6.89871 17.3117 5.65552 16.8461 5.06934C16.8291 5.04873 16.808 5.03191 16.7842 5.02C16.7603 5.00808 16.7342 5.00133 16.7075 5.00018C16.6809 4.99903 16.6543 5.0035 16.6295 5.01332C16.6046 5.02313 16.5822 5.03806 16.5635 5.05714L16.0132 5.60743C15.9821 5.63836 15.9627 5.67913 15.9584 5.72277C15.954 5.76641 15.9649 5.81021 15.9893 5.84669C16.164 6.10748 16.4405 6.76042 15.8682 7.75549C15.2977 7.45506 14.6628 7.29766 14.0181 7.29683C12.7084 7.29683 11.808 7.97465 11.6638 8.06533C11.6047 8.10245 11.5561 8.15399 11.5225 8.2151C11.4889 8.27621 11.4714 8.34487 11.4717 8.41461C11.472 8.48435 11.49 8.55286 11.5241 8.61369C11.5582 8.67452 11.6073 8.72566 11.6666 8.76229C11.1922 9.35446 10.9271 10.0962 10.6804 10.7953C9.7138 13.536 8.18327 13.73 7.51502 13.8066C7.06554 13.8278 6.64219 14.024 6.33552 14.3533C6.02886 14.6826 5.86322 15.1189 5.87403 15.5687C5.88485 16.0186 6.07126 16.4464 6.3934 16.7605C6.71553 17.0747 7.14782 17.2504 7.59781 17.25C12.3251 17.1782 15.6522 14.8813 17.0782 12.9285L17.3323 13.1199C17.3792 13.1552 17.4341 13.1784 17.4922 13.1874C17.5502 13.1964 17.6096 13.191 17.6651 13.1716C17.7205 13.1522 17.7703 13.1194 17.8101 13.0762C17.8499 13.0329 17.8784 12.9806 17.8931 12.9237C17.9584 12.6703 18.1252 12.1165 18.1252 11.5252C18.1266 10.9448 18.0097 10.3703 17.7815 9.83658C17.5534 9.3029 17.2188 8.82135 16.7982 8.42135V8.42135ZM14.0181 8.44527C15.6137 8.44527 16.9183 9.76646 16.9746 11.4121L16.0415 10.7108C15.8855 10.5935 15.6906 10.5402 15.4967 10.5618L14.5636 10.6654L14.6624 9.77699C14.6784 9.63288 14.6532 9.48719 14.5896 9.35686C14.5261 9.22654 14.4269 9.11693 14.3035 9.04079L13.4386 8.50748C13.629 8.46616 13.8232 8.4453 14.0181 8.44527V8.44527ZM7.59781 16.1015C7.44551 16.1015 7.29946 16.041 7.19177 15.9334C7.08409 15.8257 7.02359 15.6796 7.02359 15.5273C7.02359 15.375 7.08409 15.229 7.19177 15.1213C7.29946 15.0136 7.44551 14.9531 7.59781 14.9531C8.32659 14.8691 10.5325 14.6672 11.7638 11.1774C12.032 10.4165 12.2585 9.79732 12.6619 9.37743L13.4948 9.89159L13.3701 11.0161C13.3575 11.1302 13.3706 11.2458 13.4086 11.3541C13.4466 11.4625 13.5085 11.5609 13.5897 11.6421C13.6709 11.7233 13.7693 11.7852 13.8777 11.8232C13.986 11.8612 14.1016 11.8743 14.2157 11.8616L15.4739 11.7217L16.1611 12.2387C15.017 13.814 12.0781 16.0326 7.59781 16.1015Z" fill="white"/>
</svg>
