<svg width="16" height="16" viewBox="0 0 16 16" fill="none" xmlns="http://www.w3.org/2000/svg">
<path d="M13.4688 3.1875C13.8242 3.1875 14.125 3.48828 14.125 3.84375C14.125 4.22656 13.8242 4.5 13.4688 4.5H13.1406L12.4844 13.3867C12.4023 14.3164 11.6641 15 10.7344 15H5.23828C4.30859 15 3.57031 14.3164 3.48828 13.3867L2.83203 4.5H2.53125C2.14844 4.5 1.875 4.22656 1.875 3.84375C1.875 3.48828 2.14844 3.1875 2.53125 3.1875H4.41797L5.42969 1.68359C5.70312 1.27344 6.19531 1 6.71484 1H9.25781C9.77734 1 10.2695 1.27344 10.543 1.68359L11.5547 3.1875H13.4688ZM6.71484 2.3125C6.63281 2.3125 6.55078 2.36719 6.52344 2.42188L6.00391 3.1875H9.96875L9.44922 2.42188C9.42188 2.36719 9.33984 2.3125 9.25781 2.3125H6.71484ZM11.8281 4.5H4.14453L4.80078 13.3047C4.82812 13.5234 5.01953 13.6875 5.23828 13.6875H10.7344C10.9531 13.6875 11.1445 13.5234 11.1719 13.3047L11.8281 4.5Z" fill="#999999"/>
</svg>
